<svg xmlns="http://www.w3.org/2000/svg" viewBox="0 0 200 200" width="200" height="200">
  <defs>
    <!-- Gradiente principal moderno -->
    <linearGradient id="primaryGradient" x1="0%" y1="0%" x2="100%" y2="100%">
      <stop offset="0%" style="stop-color:#667eea;stop-opacity:1" />
      <stop offset="50%" style="stop-color:#764ba2;stop-opacity:1" />
      <stop offset="100%" style="stop-color:#f093fb;stop-opacity:1" />
    </linearGradient>
    
    <!-- Gradiente secundario para detalles -->
    <linearGradient id="secondaryGradient" x1="0%" y1="0%" x2="100%" y2="100%">
      <stop offset="0%" style="stop-color:#4facfe;stop-opacity:1" />
      <stop offset="100%" style="stop-color:#00f2fe;stop-opacity:1" />
    </linearGradient>
    
    <!-- Sombra suave -->
    <filter id="shadow" x="-20%" y="-20%" width="140%" height="140%">
      <feDropShadow dx="0" dy="4" stdDeviation="8" flood-color="#000000" flood-opacity="0.15"/>
    </filter>
    
    <!-- Brillo interno -->
    <filter id="innerGlow">
      <feGaussianBlur stdDeviation="3" result="coloredBlur"/>
      <feMerge> 
        <feMergeNode in="coloredBlur"/>
        <feMergeNode in="SourceGraphic"/>
      </feMerge>
    </filter>
  </defs>
  
  <!-- Círculo de fondo con sombra -->
  <circle cx="100" cy="100" r="85" fill="url(#primaryGradient)" filter="url(#shadow)"/>
  
  <!-- Círculo interno con brillo -->
  <circle cx="100" cy="100" r="75" fill="url(#secondaryGradient)" opacity="0.8" filter="url(#innerGlow)"/>
  
  <!-- Estetoscopio moderno -->
  <g transform="translate(100, 100)">
    <!-- Tubo principal del estetoscopio -->
    <path d="M-40 -20 Q0 -40 40 -20 Q40 0 20 20 L0 40 L-20 20 Q-40 0 -40 -20" 
          fill="white" opacity="0.95" stroke="#ffffff" stroke-width="2"/>
    
    <!-- Tubo secundario -->
    <path d="M-30 -10 Q0 -25 30 -10 Q30 5 15 15 L0 25 L-15 15 Q-30 5 -30 -10" 
          fill="white" opacity="0.8" stroke="#ffffff" stroke-width="1.5"/>
    
    <!-- Auriculares -->
    <circle cx="-25" cy="15" r="8" fill="white" opacity="0.9"/>
    <circle cx="25" cy="15" r="8" fill="white" opacity="0.9"/>
    
    <!-- Conectores de auriculares -->
    <path d="M-25 15 L-20 20" stroke="white" stroke-width="3" opacity="0.8"/>
    <path d="M25 15 L20 20" stroke="white" stroke-width="3" opacity="0.8"/>
  </g>
  
  <!-- Corazón estilizado -->
  <g transform="translate(100, 120)">
    <path d="M-12 0 C-12 -8 -4 -12 0 -8 C4 -12 12 -8 12 0 C12 8 0 16 0 16 C0 16 -12 8 -12 0 Z" 
          fill="#FF6B9D" opacity="0.9"/>
    
    <!-- Brillo del corazón -->
    <path d="M-8 -2 C-8 -6 -2 -8 0 -6 C2 -8 8 -6 8 -2 C8 2 0 6 0 6 C0 6 -8 2 -8 -2 Z" 
          fill="#FFB3D1" opacity="0.6"/>
  </g>
  
  <!-- Cruz médica moderna -->
  <g transform="translate(100, 60)">
    <!-- Cruz vertical -->
    <rect x="-3" y="-15" width="6" height="30" fill="white" opacity="0.9" rx="2"/>
    <!-- Cruz horizontal -->
    <rect x="-15" y="-3" width="30" height="6" fill="white" opacity="0.9" rx="2"/>
    
    <!-- Brillo en la cruz -->
    <rect x="-2" y="-14" width="4" height="28" fill="white" opacity="0.3" rx="1"/>
    <rect x="-14" y="-2" width="28" height="4" fill="white" opacity="0.3" rx="1"/>
  </g>
  
  <!-- Elementos decorativos -->
  <!-- Puntos de pulso -->
  <circle cx="30" cy="30" r="3" fill="white" opacity="0.6">
    <animate attributeName="opacity" values="0.6;1;0.6" dur="2s" repeatCount="indefinite"/>
  </circle>
  <circle cx="170" cy="30" r="3" fill="white" opacity="0.6">
    <animate attributeName="opacity" values="0.6;1;0.6" dur="2s" repeatCount="indefinite" begin="0.5s"/>
  </circle>
  <circle cx="30" cy="170" r="3" fill="white" opacity="0.6">
    <animate attributeName="opacity" values="0.6;1;0.6" dur="2s" repeatCount="indefinite" begin="1s"/>
  </circle>
  <circle cx="170" cy="170" r="3" fill="white" opacity="0.6">
    <animate attributeName="opacity" values="0.6;1;0.6" dur="2s" repeatCount="indefinite" begin="1.5s"/>
  </circle>
  
  <!-- Borde exterior con gradiente -->
  <circle cx="100" cy="100" r="95" fill="none" stroke="url(#primaryGradient)" stroke-width="2" opacity="0.3"/>
</svg>